<svg xmlns="http://www.w3.org/2000/svg" viewBox="0 0 229.73 107.4"><defs><style>.cls-1{fill:#fff;}</style></defs><title>Recurso 46</title><g id="Capa_2" data-name="Capa 2"><g id="Capa_1-2" data-name="Capa 1"><path class="cls-1" d="M134.36,78.94a2.59,2.59,0,0,1-.14-.29,1.52,1.52,0,0,1-.09-.28,1,1,0,0,1,0-.3,1.43,1.43,0,0,1,.17-.68,2,2,0,0,1,1.65-1,1.33,1.33,0,0,1,.56.11,1.09,1.09,0,0,1,.38.27,1.81,1.81,0,0,1,.26.33c.08.13.18.3.3.52l1.65,3c.07.12.12.24.18.35l.14.31.14.33h0a2.19,2.19,0,0,1,.12-.33c0-.1.08-.21.13-.33s.11-.24.17-.36l1.55-3c.11-.22.2-.4.27-.52a1.46,1.46,0,0,1,.26-.34,1,1,0,0,1,.41-.27,1.25,1.25,0,0,1,.51-.1,1.67,1.67,0,0,1,.62.12,1.53,1.53,0,0,1,.54.31,1.61,1.61,0,0,1,.39.47,1.18,1.18,0,0,1,.15.59,1.26,1.26,0,0,1-.12.55c-.08.16-.18.35-.31.56L141,84.64V88a1.37,1.37,0,0,1-.4,1.06,1.77,1.77,0,0,1-1.23.37,1.75,1.75,0,0,1-1.21-.37,1.4,1.4,0,0,1-.4-1.06V84.64l-3.18-5.39C134.48,79.15,134.41,79,134.36,78.94Z"/><path class="cls-1" d="M145.7,80.26A5.89,5.89,0,0,1,147,78.13a5.66,5.66,0,0,1,2-1.34,7.41,7.41,0,0,1,2.69-.47,7.27,7.27,0,0,1,2.58.44,5.44,5.44,0,0,1,3.23,3.31,7.78,7.78,0,0,1,.44,2.69,8.33,8.33,0,0,1-.46,2.84,6,6,0,0,1-1.31,2.13,5.75,5.75,0,0,1-2.05,1.34,7.34,7.34,0,0,1-2.67.47,7.07,7.07,0,0,1-2.59-.45,5.31,5.31,0,0,1-2-1.27,5.57,5.57,0,0,1-1.25-2,7.82,7.82,0,0,1-.44-2.69A8.29,8.29,0,0,1,145.7,80.26Zm3.1,4.45a3.77,3.77,0,0,0,.66,1.28,2.76,2.76,0,0,0,2.18,1,2.78,2.78,0,0,0,1.18-.25,2.82,2.82,0,0,0,1-.76,3.7,3.7,0,0,0,.64-1.27,6,6,0,0,0,.24-1.79,6.11,6.11,0,0,0-.24-1.79,3.82,3.82,0,0,0-.66-1.29,2.89,2.89,0,0,0-1-.77,2.85,2.85,0,0,0-2.38,0,2.59,2.59,0,0,0-1,.76,3.54,3.54,0,0,0-.65,1.27,6.8,6.8,0,0,0,0,3.58Z"/><path class="cls-1" d="M160.31,76.83a1.76,1.76,0,0,1,1.23-.37,1.71,1.71,0,0,1,1.22.37,1.34,1.34,0,0,1,.4,1V84a4.93,4.93,0,0,0,.16,1.36,2.7,2.7,0,0,0,.46.93,1.85,1.85,0,0,0,.72.53,2.37,2.37,0,0,0,.9.17,2.13,2.13,0,0,0,.84-.16,1.66,1.66,0,0,0,.67-.48,2.41,2.41,0,0,0,.43-.83,3.74,3.74,0,0,0,.16-1.18V77.88a1.37,1.37,0,0,1,.39-1,1.71,1.71,0,0,1,1.22-.37,1.76,1.76,0,0,1,1.23.37,1.38,1.38,0,0,1,.4,1v6.18a7.1,7.1,0,0,1-.37,2.37,4.45,4.45,0,0,1-1.05,1.72,4.51,4.51,0,0,1-1.72,1,7.31,7.31,0,0,1-2.35.35,7.41,7.41,0,0,1-2.32-.34,4.28,4.28,0,0,1-1.66-1,4.11,4.11,0,0,1-1-1.61,6.81,6.81,0,0,1-.34-2.22V77.88A1.38,1.38,0,0,1,160.31,76.83Z"/><path class="cls-1" d="M178.41,76.91a1.42,1.42,0,0,1,1.07-.38h2.88a9.5,9.5,0,0,1,2.3.24,4.86,4.86,0,0,1,1.57.68,2.65,2.65,0,0,1,.88,1,3,3,0,0,1,.27,1.26,3,3,0,0,1-.14,1,2.61,2.61,0,0,1-.4.8,2.65,2.65,0,0,1-.63.62,3.19,3.19,0,0,1-.85.41v0a3.27,3.27,0,0,1,1,.33,2.68,2.68,0,0,1,.78.59,2.33,2.33,0,0,1,.5.83,3,3,0,0,1,.18,1,3.77,3.77,0,0,1-.33,1.59,3.29,3.29,0,0,1-1,1.27,5.17,5.17,0,0,1-1.75.82,9.49,9.49,0,0,1-2.55.3h-2.71A1.32,1.32,0,0,1,178,87.9V78A1.45,1.45,0,0,1,178.41,76.91Zm4.67,4.66a1.88,1.88,0,0,0,.6-.31,1.13,1.13,0,0,0,.35-.46,1.46,1.46,0,0,0,.12-.6,1.5,1.5,0,0,0-.11-.58,1.09,1.09,0,0,0-.33-.44,1.76,1.76,0,0,0-.6-.28,3.75,3.75,0,0,0-.89-.09h-1v2.87h1A3,3,0,0,0,183.08,81.57Zm.24,5.37a2,2,0,0,0,.69-.33,1.52,1.52,0,0,0,.41-.51,1.71,1.71,0,0,0,.13-.65,1.66,1.66,0,0,0-.12-.64,1.21,1.21,0,0,0-.39-.49,1.94,1.94,0,0,0-.68-.3,4.36,4.36,0,0,0-1-.11h-1.13v3.15h1.13A3.6,3.6,0,0,0,183.32,86.94Z"/><path class="cls-1" d="M197.63,87.09a1.77,1.77,0,0,1,0,1.94,1,1,0,0,1-.81.31h-5.46a1.32,1.32,0,0,1-1.45-1.44v-10a1.38,1.38,0,0,1,.4-1,1.75,1.75,0,0,1,1.22-.37,1.72,1.72,0,0,1,1.23.37,1.34,1.34,0,0,1,.4,1v8.89h3.66A1.07,1.07,0,0,1,197.63,87.09Z"/><path class="cls-1" d="M199.78,76.83a2.21,2.21,0,0,1,2.45,0,1.38,1.38,0,0,1,.4,1V88a1.4,1.4,0,0,1-.4,1.06,2.21,2.21,0,0,1-2.45,0,1.37,1.37,0,0,1-.4-1.06V77.88A1.34,1.34,0,0,1,199.78,76.83Z"/><path class="cls-1" d="M205.86,77a2.29,2.29,0,0,1,1.68-.54,3.35,3.35,0,0,1,.9.11,2.08,2.08,0,0,1,.65.32,2.33,2.33,0,0,1,.52.52,8.58,8.58,0,0,1,.46.73l3.26,5.54a7.73,7.73,0,0,1,.37.69l.28.6.26.59,0,0c0-.22-.06-.45-.08-.7l-.07-.73c0-.27,0-.56,0-.86l-.17-5.53a1.09,1.09,0,0,1,.35-.92,1.58,1.58,0,0,1,1.1-.34,1.51,1.51,0,0,1,1.06.33,1.2,1.2,0,0,1,.36.93v9.51a2.22,2.22,0,0,1-.54,1.64,2.31,2.31,0,0,1-1.68.54,3.22,3.22,0,0,1-.89-.11A2,2,0,0,1,213,89a2.38,2.38,0,0,1-.52-.53,7.52,7.52,0,0,1-.46-.72l-3.26-5.54-.37-.69c-.12-.22-.21-.42-.29-.6l-.26-.59,0,0c0,.22,0,.45.07.7s.05.45.07.73,0,.56.05.86l.16,5.53a1.08,1.08,0,0,1-.34.92,1.63,1.63,0,0,1-1.1.34,1.46,1.46,0,0,1-1.07-.34,1.16,1.16,0,0,1-.36-.92V78.63A2.19,2.19,0,0,1,205.86,77Z"/><path class="cls-1" d="M226.75,77l.19-.2a1.39,1.39,0,0,1,1-.4,1.77,1.77,0,0,1,.64.12,1.82,1.82,0,0,1,.94.81,1.19,1.19,0,0,1,.15.58,1.13,1.13,0,0,1-.09.45,1.77,1.77,0,0,1-.28.46l-3.17,3.74,3.17,4.13a1.16,1.16,0,0,1,.16.21l.15.26a1.25,1.25,0,0,1,.11.29,1.15,1.15,0,0,1,0,.33,1.38,1.38,0,0,1-.15.62,1.72,1.72,0,0,1-.41.52,2,2,0,0,1-.59.35,1.74,1.74,0,0,1-.67.13,1.48,1.48,0,0,1-.57-.1,1.31,1.31,0,0,1-.45-.3,2.39,2.39,0,0,1-.22-.23l-.24-.34-3.7-5.15V88a1.4,1.4,0,0,1-.39,1.06,2.23,2.23,0,0,1-2.46,0,1.4,1.4,0,0,1-.39-1.06V77.88a1.34,1.34,0,0,1,.4-1,1.71,1.71,0,0,1,1.22-.37,1.76,1.76,0,0,1,1.23.37,1.37,1.37,0,0,1,.39,1V82.4l3.83-5.12Z"/><path class="cls-1" d="M135,96.81a2,2,0,0,1-.14-.3,1.57,1.57,0,0,1-.1-.28,1,1,0,0,1,0-.3,1.43,1.43,0,0,1,.17-.68,2,2,0,0,1,.44-.52,1.88,1.88,0,0,1,.59-.32,1.73,1.73,0,0,1,.62-.11,1.39,1.39,0,0,1,.57.1,1.14,1.14,0,0,1,.37.27,1.46,1.46,0,0,1,.26.33l.3.52,1.66,3,.17.35.14.31.14.33h0c0-.11.08-.21.12-.33l.13-.33a3.84,3.84,0,0,1,.18-.35l1.54-3,.27-.52a1.8,1.8,0,0,1,.26-.34,1.22,1.22,0,0,1,.41-.27,1.44,1.44,0,0,1,.51-.09,1.66,1.66,0,0,1,.62.11,1.74,1.74,0,0,1,.55.31,1.57,1.57,0,0,1,.38.47,1.2,1.2,0,0,1,.15.59,1.26,1.26,0,0,1-.12.55c-.08.16-.18.35-.31.56l-3.29,5.62v3.33a1.4,1.4,0,0,1-.39,1.06,1.81,1.81,0,0,1-1.23.37,1.78,1.78,0,0,1-1.22-.37,1.4,1.4,0,0,1-.39-1.06v-3.33l-3.18-5.4A2.38,2.38,0,0,1,135,96.81Z"/><path class="cls-1" d="M146.31,98.13A6,6,0,0,1,147.62,96a5.75,5.75,0,0,1,2-1.34,7.31,7.31,0,0,1,2.68-.47,7.06,7.06,0,0,1,2.58.45,5.32,5.32,0,0,1,3.23,3.3,7.78,7.78,0,0,1,.44,2.69,8.1,8.1,0,0,1-.46,2.84,6,6,0,0,1-1.31,2.13,5.62,5.62,0,0,1-2.05,1.34,7.83,7.83,0,0,1-5.26,0,5.53,5.53,0,0,1-2-1.27,5.87,5.87,0,0,1-1.26-2,7.78,7.78,0,0,1-.44-2.69A8.19,8.19,0,0,1,146.31,98.13Zm3.1,4.44a3.82,3.82,0,0,0,.66,1.29,2.89,2.89,0,0,0,1,.77,2.84,2.84,0,0,0,1.2.26,2.79,2.79,0,0,0,1.18-.26,2.71,2.71,0,0,0,1-.76,3.71,3.71,0,0,0,.65-1.27,6.33,6.33,0,0,0,.23-1.79A6.11,6.11,0,0,0,155,99a3.77,3.77,0,0,0-.66-1.28,2.92,2.92,0,0,0-1-.78,2.83,2.83,0,0,0-1.19-.26,2.75,2.75,0,0,0-2.15,1,3.67,3.67,0,0,0-.65,1.28,5.94,5.94,0,0,0-.24,1.78A6,6,0,0,0,149.41,102.57Z"/><path class="cls-1" d="M160.93,94.69a1.76,1.76,0,0,1,1.22-.37,1.81,1.81,0,0,1,1.23.37,1.4,1.4,0,0,1,.39,1.06v6.11a5.34,5.34,0,0,0,.16,1.36,2.71,2.71,0,0,0,.47.93,1.82,1.82,0,0,0,.71.53,2.37,2.37,0,0,0,.9.17,2.28,2.28,0,0,0,.84-.15,1.79,1.79,0,0,0,.67-.49,2.51,2.51,0,0,0,.44-.83,4.08,4.08,0,0,0,.15-1.18V95.75a1.4,1.4,0,0,1,.39-1.06,1.76,1.76,0,0,1,1.22-.37,1.81,1.81,0,0,1,1.23.37,1.37,1.37,0,0,1,.4,1.06v6.17a7.22,7.22,0,0,1-.36,2.38,4.63,4.63,0,0,1-1.06,1.71,4.35,4.35,0,0,1-1.71,1,7.42,7.42,0,0,1-2.36.35,7,7,0,0,1-2.31-.34,4.32,4.32,0,0,1-1.67-1,4,4,0,0,1-1-1.61,6.54,6.54,0,0,1-.34-2.21V95.75A1.37,1.37,0,0,1,160.93,94.69Z"/><path class="cls-1" d="M174,94.42a1.77,1.77,0,0,1,1-1,2,2,0,0,1,.75-.14,1.94,1.94,0,0,1,.73.14,1.46,1.46,0,0,1,.57.41,1.92,1.92,0,0,1,.37.66,2.71,2.71,0,0,1,.13.88,5.07,5.07,0,0,1-.11,1.06,6.1,6.1,0,0,1-.28.94,6,6,0,0,1-.4.8,5.91,5.91,0,0,1-.44.64,3.91,3.91,0,0,1-.95.92,1.92,1.92,0,0,1-1,.33.88.88,0,0,1-.65-.22.78.78,0,0,1-.23-.58.72.72,0,0,1,.15-.45c.11-.13.23-.29.38-.46s.29-.37.46-.62a3.34,3.34,0,0,0,.4-1,1.85,1.85,0,0,1-.34-.21,1.27,1.27,0,0,1-.31-.34,1.71,1.71,0,0,1-.23-.47,2,2,0,0,1-.09-.62A1.73,1.73,0,0,1,174,94.42Z"/><path class="cls-1" d="M182.57,106.9a2.13,2.13,0,0,1-2.4,0,1.4,1.4,0,0,1-.39-1.06v-10a1.45,1.45,0,0,1,.38-1.06,1.47,1.47,0,0,1,1.07-.38h2.85a8.89,8.89,0,0,1,2.4.28,4.7,4.7,0,0,1,1.65.8,3.24,3.24,0,0,1,1,1.2,3.61,3.61,0,0,1,.31,1.51,4.36,4.36,0,0,1-.15,1.17,3.84,3.84,0,0,1-.45,1,3.37,3.37,0,0,1-.7.76,4.23,4.23,0,0,1-.92.55l2,3.18a3.28,3.28,0,0,1,.27.51,1.25,1.25,0,0,1,.08.42,1.3,1.3,0,0,1-.16.62,1.6,1.6,0,0,1-.41.49,1.94,1.94,0,0,1-.58.33,2,2,0,0,1-.68.12,1.47,1.47,0,0,1-.58-.1,1.12,1.12,0,0,1-.44-.3.86.86,0,0,1-.13-.14.67.67,0,0,1-.11-.14l-.09-.17a1.42,1.42,0,0,1-.11-.18l-2.16-3.93H183v3.51A1.43,1.43,0,0,1,182.57,106.9Zm2.39-7a1.9,1.9,0,0,0,.65-.34A1.39,1.39,0,0,0,186,99a1.76,1.76,0,0,0,.12-.66,2,2,0,0,0-.11-.66,1.28,1.28,0,0,0-.38-.49,1.87,1.87,0,0,0-.68-.31,4.21,4.21,0,0,0-1-.11h-1V100h1.1A3.09,3.09,0,0,0,185,99.86Z"/><path class="cls-1" d="M198.75,104.75a1,1,0,0,1,.77.3,1.33,1.33,0,0,1,.28.92,1.31,1.31,0,0,1-.28.93,1,1,0,0,1-.77.3H193a1.43,1.43,0,0,1-1.07-.38,1.45,1.45,0,0,1-.38-1.06V95.83a1.45,1.45,0,0,1,.38-1.06,1.47,1.47,0,0,1,1.07-.38h5.69a1,1,0,0,1,.78.3,1.67,1.67,0,0,1,0,1.85,1,1,0,0,1-.78.3h-3.89v2.64h3.3a1,1,0,0,1,.74.31,1.6,1.6,0,0,1,0,1.81,1,1,0,0,1-.74.3h-3.3v2.85Z"/><path class="cls-1" d="M205,94.69a2.21,2.21,0,0,1,2.45,0,1.4,1.4,0,0,1,.39,1.06v10.09a1.4,1.4,0,0,1-.39,1.06,1.77,1.77,0,0,1-1.23.37,1.81,1.81,0,0,1-1.23-.37,1.4,1.4,0,0,1-.39-1.06V95.75A1.37,1.37,0,0,1,205,94.69Z"/><path class="cls-1" d="M211.09,94.86a2.29,2.29,0,0,1,1.68-.54,3.35,3.35,0,0,1,.9.11,2.08,2.08,0,0,1,.65.32,2.38,2.38,0,0,1,.52.53,7,7,0,0,1,.46.72l3.26,5.54c.14.24.26.46.37.69l.28.6.26.59.05,0c0-.22-.06-.45-.08-.7l-.07-.72c0-.28,0-.56-.05-.87l-.16-5.53a1.06,1.06,0,0,1,.35-.92,1.61,1.61,0,0,1,1.1-.34,1.51,1.51,0,0,1,1.06.33,1.2,1.2,0,0,1,.36.93v9.51a2.2,2.2,0,0,1-.54,1.64,2.32,2.32,0,0,1-1.68.54,3.22,3.22,0,0,1-.89-.11,2.18,2.18,0,0,1-.67-.32,2.34,2.34,0,0,1-.51-.53,5.64,5.64,0,0,1-.46-.72L214,100.05l-.36-.69c-.12-.22-.21-.42-.29-.6l-.26-.59,0,0c0,.22.05.45.07.7s.05.45.07.73,0,.56,0,.86l.16,5.53a1.11,1.11,0,0,1-.34.92,1.58,1.58,0,0,1-1.1.34,1.55,1.55,0,0,1-1.08-.33,1.23,1.23,0,0,1-.35-.93V96.49A2.21,2.21,0,0,1,211.09,94.86Z"/><path class="cls-1" d="M219.05,13.9a6.93,6.93,0,0,0,6.82-7A6.8,6.8,0,0,0,219.05,0a6.87,6.87,0,0,0-6.82,6.9A6.92,6.92,0,0,0,219.05,13.9Z"/><path class="cls-1" d="M204.3,64.86a.65.65,0,0,0,.16-.45V38.35a33.43,33.43,0,0,0-.8-7.88,15.46,15.46,0,0,0-2.54-5.57,12.2,12.2,0,0,0-4.58-3.72,16.29,16.29,0,0,0-7-1.37,15.05,15.05,0,0,0-6.43,1.45,22.15,22.15,0,0,0-6.15,4.43l-1,1V1.76a.73.73,0,0,0-.16-.48A1.54,1.54,0,0,0,175,.83a7.77,7.77,0,0,0-1.69-.36,28.67,28.67,0,0,0-5.66,0,7.38,7.38,0,0,0-1.7.37,1.66,1.66,0,0,0-.7.43.8.8,0,0,0-.16.49V64.41a.7.7,0,0,0,.15.45,1.39,1.39,0,0,0,.7.4,7.4,7.4,0,0,0,1.7.33,28.19,28.19,0,0,0,2.84.11c1.13,0,2.09,0,2.85-.11a7.29,7.29,0,0,0,1.69-.33,1.53,1.53,0,0,0,.7-.4.7.7,0,0,0,.15-.45V36l.13-.17a25.65,25.65,0,0,1,5-5A8.57,8.57,0,0,1,186,29a7.59,7.59,0,0,1,3.45.76,6.4,6.4,0,0,1,2.44,2.15,10.09,10.09,0,0,1,1.4,3.22,20.63,20.63,0,0,1,.47,5V64.41a.7.7,0,0,0,.15.45,1.43,1.43,0,0,0,.68.4,7,7,0,0,0,1.69.33c.78.08,1.74.11,2.87.11s2,0,2.83-.11a6.78,6.78,0,0,0,1.68-.33A1.33,1.33,0,0,0,204.3,64.86Z"/><path class="cls-1" d="M157.89,42.54a41.08,41.08,0,0,0-.94-8.92A22,22,0,0,0,154,26.39a14.41,14.41,0,0,0-5.14-4.83,15.63,15.63,0,0,0-7.66-1.75,17.21,17.21,0,0,0-4.07.46,16,16,0,0,0-3.69,1.39A21.73,21.73,0,0,0,129.89,24a42.42,42.42,0,0,0-3.59,3.31l-1,1.08V21.91a.89.89,0,0,0-.14-.5,1.16,1.16,0,0,0-.55-.36,5.58,5.58,0,0,0-1.41-.32,19.06,19.06,0,0,0-2.34-.12,19.31,19.31,0,0,0-2.38.12,5.78,5.78,0,0,0-1.42.32,1.4,1.4,0,0,0-.55.36.89.89,0,0,0-.13.5V92a.78.78,0,0,0,.16.49,1.63,1.63,0,0,0,.7.44,8.3,8.3,0,0,0,1.7.37,28.67,28.67,0,0,0,5.66,0,8,8,0,0,0,1.69-.37,1.69,1.69,0,0,0,.71-.44.84.84,0,0,0,.16-.49V36l.12-.16A31.23,31.23,0,0,1,130,32.62a17.32,17.32,0,0,1,2.59-2.17,9.94,9.94,0,0,1,2.55-1.24,8.56,8.56,0,0,1,2.54-.39A7.22,7.22,0,0,1,142,30.11a9.22,9.22,0,0,1,2.76,3.34,16,16,0,0,1,1.43,4.63,32.46,32.46,0,0,1,.36,3.7c0,6-1.45,13.21-12.64,15.43v9.87c11-1.47,16.85-6.77,19.83-11a19.31,19.31,0,0,0,2.88-5.49c.22-.61.36-1.11.45-1.42h0l.09-.44A26.47,26.47,0,0,0,157.89,42.54Z"/><path class="cls-1" d="M224.47,64.86a.69.69,0,0,0,.14-.45V22a.65.65,0,0,0-.15-.45,1.67,1.67,0,0,0-.71-.43,7.71,7.71,0,0,0-1.69-.37,28.77,28.77,0,0,0-5.67,0,8,8,0,0,0-1.69.37,1.68,1.68,0,0,0-.71.43.65.65,0,0,0-.15.45v42.4a.65.65,0,0,0,.15.45,1.41,1.41,0,0,0,.69.4,7.4,7.4,0,0,0,1.7.33,28.4,28.4,0,0,0,2.85.11c1.12,0,2.08,0,2.84-.11a7.19,7.19,0,0,0,1.69-.33A1.53,1.53,0,0,0,224.47,64.86Z"/><path class="cls-1" d="M93,2.55a.78.78,0,0,0-.16.49V34.88c0,11.3,1.91,24.94,16.6,30.89V53.93c-3.81-3.19-5.82-7.92-5.82-13.7V3a.78.78,0,0,0-.16-.49,1.69,1.69,0,0,0-.71-.44,7.44,7.44,0,0,0-1.69-.37,28.67,28.67,0,0,0-5.66,0,8.3,8.3,0,0,0-1.7.37A1.56,1.56,0,0,0,93,2.55Z"/><path class="cls-1" d="M37.29,55.8A18.63,18.63,0,0,0,39,47.55a16.28,16.28,0,0,0-1.09-6.22,15.7,15.7,0,0,0-2.89-4.59,19.4,19.4,0,0,0-4.11-3.37,46.11,46.11,0,0,0-4.8-2.56c-1.64-.76-3.26-1.48-4.84-2.16A33.2,33.2,0,0,1,17,26.41a11.5,11.5,0,0,1-3.17-2.82,6.4,6.4,0,0,1-1.24-3.91,7.65,7.65,0,0,1,.55-2.85,6.11,6.11,0,0,1,1.69-2.36A8,8,0,0,1,17.54,13a12.19,12.19,0,0,1,3.76-.53,17.87,17.87,0,0,1,5,.67,28.21,28.21,0,0,1,3.95,1.46c1.12.53,2.08,1,2.85,1.48a3.38,3.38,0,0,0,1.36.58.55.55,0,0,0,.42-.12,1.3,1.3,0,0,0,.3-.62,8.61,8.61,0,0,0,.22-1.45c0-.6.07-1.35.07-2.29s0-1.49-.05-2a8.86,8.86,0,0,0-.15-1.28A3.21,3.21,0,0,0,35,8.09a2.46,2.46,0,0,0-.53-.65,6.88,6.88,0,0,0-1.78-1.08,24,24,0,0,0-3.29-1.25,28.68,28.68,0,0,0-4-.88A28.64,28.64,0,0,0,13.25,5a18.57,18.57,0,0,0-6.36,3.2,15.46,15.46,0,0,0-4.26,5.37,17,17,0,0,0-1.58,7.52,16.74,16.74,0,0,0,1.1,6.39A15.76,15.76,0,0,0,5,32.06a18.91,18.91,0,0,0,4,3.36A43.4,43.4,0,0,0,13.79,38q2.48,1.14,4.81,2.16a31.21,31.21,0,0,1,4.25,2.24A11.88,11.88,0,0,1,26,45.2a6.39,6.39,0,0,1,1.27,4,8.52,8.52,0,0,1-.72,3.54,7.22,7.22,0,0,1-2.11,2.7,9.78,9.78,0,0,1-3.27,1.66,14.88,14.88,0,0,1-4.28.57,22.17,22.17,0,0,1-6.29-.81,29.06,29.06,0,0,1-4.66-1.78,34.29,34.29,0,0,1-3.17-1.77,3.34,3.34,0,0,0-1.55-.69.79.79,0,0,0-.47.14,1.19,1.19,0,0,0-.36.59A6.84,6.84,0,0,0,.09,54.8C0,55.46,0,56.27,0,57.22a15.39,15.39,0,0,0,.25,3.22A3.1,3.1,0,0,0,1,61.93a9.54,9.54,0,0,0,1.9,1.33,20.16,20.16,0,0,0,3.4,1.5A32.17,32.17,0,0,0,11,66a31.21,31.21,0,0,0,5.82.51,30.2,30.2,0,0,0,8.68-1.21,20.9,20.9,0,0,0,7-3.58A17.23,17.23,0,0,0,37.29,55.8Z"/><path class="cls-1" d="M85.53,40a28.19,28.19,0,0,0-1.11-8.11A17.27,17.27,0,0,0,81,25.53a16.08,16.08,0,0,0-6-4.19,23.33,23.33,0,0,0-8.89-1.53,22.91,22.91,0,0,0-8.84,1.63,17.84,17.84,0,0,0-6.62,4.67,20.83,20.83,0,0,0-4.16,7.5,32.6,32.6,0,0,0-1.45,10,34.1,34.1,0,0,0,1.38,10.2,17.49,17.49,0,0,0,4.12,7.09,17.18,17.18,0,0,0,6.88,4.19,31,31,0,0,0,9.74,1.39A41,41,0,0,0,73,66.12c1.81-.27,3.44-.59,4.84-.94a25.63,25.63,0,0,0,3.44-1.1,5.17,5.17,0,0,0,1.48-.75,2.85,2.85,0,0,0,.41-.56,2.59,2.59,0,0,0,.22-.71,10,10,0,0,0,.14-1.19c0-.48,0-1.06,0-1.74s0-1.42-.07-1.93a3.27,3.27,0,0,0-.21-1,.71.71,0,0,0-.23-.32,3,3,0,0,0-2,.33c-.79.32-1.78.66-2.93,1a39.77,39.77,0,0,1-4.19,1,31.21,31.21,0,0,1-5.64.46,16.25,16.25,0,0,1-5.52-.85,9.51,9.51,0,0,1-3.86-2.52,10,10,0,0,1-2.19-4A18.6,18.6,0,0,1,56,46.21V45.6H82.48a2.9,2.9,0,0,0,2.24-.85,4.09,4.09,0,0,0,.81-2.83Zm-10.41-.91H56l0-.64a17.67,17.67,0,0,1,.71-4.37,11.2,11.2,0,0,1,1.82-3.62,8.75,8.75,0,0,1,3-2.49,9.34,9.34,0,0,1,4.25-.92c3.21,0,5.63,1.05,7.19,3.12s2.24,4.83,2.14,8.32Z"/></g></g></svg>