<?xml version="1.0" encoding="utf-8"?>
<!-- Generator: Adobe Illustrator 22.0.0, SVG Export Plug-In . SVG Version: 6.00 Build 0)  -->
<svg version="1.1" id="Capa_1" xmlns="http://www.w3.org/2000/svg" xmlns:xlink="http://www.w3.org/1999/xlink" x="0px" y="0px"
	 width="124px" height="33px" viewBox="0 0 124 33" style="enable-background:new 0 0 124 33;" xml:space="preserve">
<style type="text/css">
	.st0{fill:#FFFFFF;}
</style>
<path class="st0" d="M31.3,27c0,0.3-0.1,0.6-0.3,0.9c-0.1,0.1-0.2,0.2-0.3,0.3c-0.1,0.1-0.3,0.2-0.4,0.2c0.1,0,0.2,0.1,0.3,0.1
	c0.1,0.1,0.2,0.1,0.3,0.2c0.1,0.1,0.1,0.2,0.2,0.3c0,0.1,0.1,0.3,0.1,0.4c0,0.3-0.1,0.6-0.2,0.9c-0.2,0.3-0.4,0.5-0.7,0.7
	c-0.2,0.1-0.4,0.2-0.5,0.2c-0.2,0-0.4,0.1-0.7,0.1h-1.5c-0.1,0-0.2,0-0.2-0.1c0,0-0.1-0.1,0-0.2l1-4.8c0-0.1,0.1-0.2,0.1-0.2
	c0.1,0,0.1-0.1,0.2-0.1h1.2c0.3,0,0.5,0,0.7,0.1c0.2,0,0.3,0.1,0.5,0.2c0.1,0.1,0.2,0.2,0.3,0.3C31.2,26.7,31.3,26.9,31.3,27
	 M30.3,29.6c0-0.2-0.1-0.4-0.3-0.5c-0.2-0.1-0.4-0.2-0.8-0.2h-0.9L28,30.8h1c0.2,0,0.4,0,0.6-0.1c0.1-0.1,0.3-0.1,0.4-0.3
	c0.1-0.1,0.2-0.2,0.2-0.4C30.3,29.9,30.3,29.8,30.3,29.6 M30.5,27.2c0-0.1,0-0.2,0-0.2c0-0.1-0.1-0.1-0.1-0.2
	c-0.1-0.1-0.2-0.1-0.3-0.1c-0.1,0-0.3,0-0.4,0h-0.8l-0.4,1.8h0.8c0.2,0,0.4,0,0.6-0.1c0.3-0.1,0.5-0.4,0.6-0.7
	C30.5,27.4,30.5,27.3,30.5,27.2 M37.4,28.3c0,0.2,0,0.4-0.1,0.5c-0.1,0.2-0.3,0.3-0.4,0.4c-0.2,0.1-0.4,0.2-0.7,0.3
	c-0.3,0.1-0.7,0.1-1.1,0.1h-0.5c0,0.1,0,0.2,0,0.3c0,0.1,0,0.2,0,0.2c0,0.3,0.1,0.5,0.2,0.6c0.1,0.1,0.4,0.2,0.7,0.2
	c0.2,0,0.3,0,0.5,0c0.1,0,0.3-0.1,0.4-0.1c0.1,0,0.2-0.1,0.3-0.1c0,0,0.1,0,0.1,0c0,0,0,0,0.1,0c0,0,0,0,0,0.1c0,0.1,0,0.1,0,0.2
	c0,0.1-0.1,0.1-0.1,0.2c-0.1,0-0.1,0.1-0.2,0.1c-0.1,0-0.2,0.1-0.3,0.1c-0.3,0.1-0.5,0.1-0.8,0.1c-0.3,0-0.5,0-0.7-0.1
	c-0.2,0-0.3-0.1-0.5-0.3c-0.1-0.1-0.2-0.3-0.3-0.4c-0.1-0.2-0.1-0.4-0.1-0.6c0-0.4,0.1-0.8,0.2-1.2c0.1-0.2,0.2-0.4,0.3-0.6
	c0.1-0.2,0.3-0.4,0.4-0.5c0.2-0.1,0.4-0.3,0.6-0.3c0.2-0.1,0.5-0.1,0.7-0.1c0.2,0,0.4,0,0.6,0.1c0.2,0.1,0.3,0.1,0.4,0.2
	C37.3,27.8,37.4,28,37.4,28.3 M36.7,28.4c0-0.1-0.1-0.3-0.2-0.3c-0.1-0.1-0.3-0.1-0.5-0.1c-0.3,0-0.6,0.1-0.9,0.3
	c-0.1,0.1-0.2,0.2-0.3,0.4c-0.1,0.1-0.1,0.3-0.2,0.4h0.4c0.3,0,0.5,0,0.7-0.1s0.4-0.1,0.5-0.1c0.1,0,0.2-0.1,0.3-0.2
	C36.7,28.5,36.7,28.4,36.7,28.4 M43.5,27.5C43.5,27.5,43.5,27.6,43.5,27.5c0,0.1,0,0.2,0,0.2c-0.1,0.3-0.2,0.5-0.3,0.8
	c-0.3,0.6-0.6,1.2-0.9,1.8c-0.2,0.3-0.4,0.7-0.7,1l-1.1,1.5c0,0,0,0-0.1,0.1c-0.1,0-0.1,0.1-0.2,0.1c-0.1,0-0.2,0-0.4,0
	c0,0-0.1,0-0.1,0c0,0,0,0,0-0.1c0,0,0-0.1,0.1-0.1l1-1.3l-0.6-3.7c0-0.1,0-0.1,0-0.2c0,0,0-0.1,0-0.1c0,0,0,0,0.1,0c0,0,0.1,0,0.1,0
	c0,0,0.1,0,0.2,0c0.1,0,0.1,0,0.2,0c0,0,0.1,0,0.1,0c0,0,0,0,0.1,0c0,0,0,0,0,0.1l0.5,3.1h0c0.2-0.2,0.3-0.5,0.5-0.7
	c0.1-0.3,0.3-0.5,0.4-0.8c0.1-0.3,0.2-0.5,0.3-0.8c0.1-0.3,0.2-0.5,0.3-0.8c0,0,0,0,0-0.1c0,0,0,0,0.1,0c0,0,0.1,0,0.1,0
	c0.1,0,0.1,0,0.2,0C43.3,27.4,43.4,27.4,43.5,27.5C43.5,27.4,43.5,27.5,43.5,27.5 M49.6,28.8c0,0.2,0,0.4-0.1,0.6
	c0,0.2-0.1,0.4-0.2,0.6c-0.1,0.2-0.2,0.4-0.3,0.6c-0.2,0.4-0.6,0.6-1,0.8c-0.2,0.1-0.5,0.1-0.7,0.1c-0.3,0-0.5,0-0.7-0.1
	c-0.2-0.1-0.3-0.2-0.5-0.3c-0.1-0.1-0.2-0.3-0.3-0.5c-0.1-0.2-0.1-0.4-0.1-0.6c0-0.2,0-0.4,0.1-0.6c0.1-0.4,0.2-0.8,0.5-1.2
	c0.1-0.2,0.3-0.3,0.4-0.5c0.2-0.1,0.4-0.2,0.6-0.3c0.2-0.1,0.5-0.1,0.7-0.1c0.3,0,0.5,0,0.7,0.1c0.2,0.1,0.4,0.2,0.5,0.3
	s0.2,0.3,0.3,0.5C49.5,28.3,49.6,28.5,49.6,28.8 M48.8,28.8c0-0.1,0-0.3,0-0.4c0-0.1-0.1-0.2-0.1-0.3c-0.1-0.1-0.2-0.1-0.3-0.2
	c-0.1,0-0.3-0.1-0.4-0.1c-0.2,0-0.3,0-0.5,0.1c-0.1,0.1-0.3,0.1-0.4,0.2c-0.1,0.1-0.2,0.2-0.3,0.4c-0.1,0.1-0.1,0.3-0.2,0.4
	c-0.1,0.3-0.2,0.6-0.2,1c0,0.1,0,0.3,0,0.4c0.1,0.2,0.2,0.4,0.4,0.5c0.1,0,0.2,0.1,0.4,0.1c0.2,0,0.3,0,0.5-0.1s0.3-0.1,0.4-0.2
	c0.1-0.1,0.2-0.2,0.3-0.4c0.1-0.1,0.1-0.3,0.2-0.4C48.8,29.5,48.8,29.1,48.8,28.8 M55.9,28.4c0,0.1,0,0.2,0,0.3c0,0.1,0,0.2,0,0.3
	l-0.5,2.4c0,0,0,0,0,0.1c0,0,0,0-0.1,0c0,0-0.1,0-0.1,0c-0.1,0-0.1,0-0.2,0c-0.1,0-0.1,0-0.2,0c0,0-0.1,0-0.1,0c0,0,0,0,0,0
	c0,0,0,0,0-0.1l0.5-2.3c0-0.1,0-0.2,0-0.3c0-0.1,0-0.2,0-0.2c0-0.1,0-0.3-0.1-0.4c-0.1-0.1-0.2-0.2-0.4-0.2c-0.2,0-0.3,0-0.5,0.1
	c-0.2,0.1-0.3,0.2-0.4,0.3c-0.3,0.3-0.5,0.8-0.6,1.2l-0.3,1.7c0,0,0,0,0,0.1c0,0,0,0-0.1,0c0,0-0.1,0-0.1,0c-0.1,0-0.1,0-0.2,0
	c-0.1,0-0.1,0-0.2,0c0,0-0.1,0-0.1,0c0,0,0,0,0,0c0,0,0,0,0-0.1l0.8-3.8c0,0,0,0,0-0.1c0,0,0,0,0.1,0c0,0,0.1,0,0.1,0
	c0.1,0,0.2,0,0.3,0c0,0,0.1,0,0.1,0c0,0,0,0,0,0c0,0,0,0,0,0.1l-0.1,0.7c0.1-0.1,0.1-0.2,0.2-0.3c0.1-0.1,0.2-0.2,0.3-0.3
	c0.1-0.1,0.3-0.2,0.4-0.2c0.2-0.1,0.3-0.1,0.5-0.1c0.2,0,0.3,0,0.5,0.1c0.1,0.1,0.2,0.1,0.3,0.2c0.1,0.1,0.1,0.2,0.2,0.3
	C55.9,28.1,55.9,28.2,55.9,28.4 M61.8,31.3c0,0,0,0.1-0.1,0.1c-0.1,0-0.2,0-0.3,0c0,0-0.1,0-0.1,0c0,0-0.1,0-0.1,0c0,0,0,0,0,0
	c0,0,0,0,0-0.1l0.1-0.7c0,0.1-0.1,0.2-0.2,0.3c-0.2,0.2-0.5,0.4-0.8,0.5c-0.2,0.1-0.3,0.1-0.5,0.1c-0.2,0-0.3,0-0.4-0.1
	c-0.2-0.1-0.4-0.2-0.5-0.4c-0.1-0.2-0.2-0.4-0.2-0.6c0-0.1,0-0.2,0-0.3c0-0.2,0-0.3,0-0.5c0.1-0.4,0.2-0.8,0.4-1.2
	c0.1-0.2,0.2-0.4,0.4-0.5c0.2-0.2,0.3-0.3,0.5-0.4c0.2-0.1,0.4-0.1,0.7-0.1c0.1,0,0.2,0,0.3,0c0.2,0,0.4,0.1,0.5,0.3
	c0.1,0.1,0.1,0.1,0.2,0.2l0.4-2.1c0,0,0,0,0-0.1c0,0,0,0,0.1,0c0,0,0.1,0,0.1,0c0,0,0.1,0,0.2,0c0.1,0,0.1,0,0.2,0c0,0,0.1,0,0.1,0
	c0,0,0,0,0,0c0,0,0,0,0,0.1L61.8,31.3z M61.6,28.5c-0.1-0.2-0.3-0.3-0.4-0.4c-0.2-0.1-0.3-0.2-0.5-0.2c-0.1,0-0.3,0-0.4,0.1
	c-0.1,0.1-0.2,0.2-0.3,0.3c-0.1,0.1-0.2,0.2-0.3,0.4c-0.1,0.1-0.1,0.3-0.2,0.5c0,0.2-0.1,0.3-0.1,0.5c0,0.1,0,0.3,0,0.4
	c0,0.3,0,0.5,0.1,0.6c0.1,0.1,0.2,0.2,0.5,0.2c0.2,0,0.3,0,0.5-0.1c0.2-0.1,0.3-0.2,0.4-0.3c0.1-0.1,0.3-0.3,0.4-0.5
	c0.1-0.2,0.2-0.4,0.2-0.7L61.6,28.5z M73.1,27c0,0.2,0,0.3-0.1,0.5c-0.1,0.3-0.3,0.6-0.5,0.8c-0.1,0.1-0.3,0.2-0.4,0.2
	c0.1,0,0.2,0.1,0.3,0.1c0.2,0.1,0.4,0.3,0.4,0.5c0,0.1,0.1,0.3,0.1,0.4c0,0.3-0.1,0.6-0.2,0.9c-0.1,0.1-0.2,0.3-0.3,0.4
	c-0.1,0.1-0.3,0.2-0.4,0.3c-0.2,0.1-0.4,0.2-0.5,0.2c-0.2,0-0.4,0.1-0.7,0.1h-1.5c-0.1,0-0.2,0-0.2-0.1c0,0-0.1-0.1,0-0.2l1-4.8
	c0-0.1,0.1-0.2,0.1-0.2c0.1,0,0.1-0.1,0.2-0.1h1.2c0.3,0,0.5,0,0.7,0.1c0.2,0,0.3,0.1,0.5,0.2c0.1,0.1,0.2,0.2,0.3,0.3
	S73.1,26.9,73.1,27 M72.2,29.6c0-0.2-0.1-0.4-0.3-0.5c-0.2-0.1-0.4-0.2-0.8-0.2h-0.9l-0.4,1.9h1c0.2,0,0.4,0,0.6-0.1
	c0.1-0.1,0.3-0.1,0.4-0.3c0.1-0.1,0.2-0.2,0.2-0.4C72.2,29.9,72.2,29.8,72.2,29.6 M72.4,27.2c0-0.1,0-0.2,0-0.2
	c0-0.1-0.1-0.1-0.2-0.2c-0.1-0.1-0.2-0.1-0.3-0.1c-0.1,0-0.3,0-0.4,0h-0.8l-0.4,1.8h0.8c0.2,0,0.4,0,0.6-0.1
	c0.1-0.1,0.3-0.2,0.4-0.3C72.3,27.7,72.4,27.4,72.4,27.2 M76.3,31.3C76.3,31.3,76.3,31.3,76.3,31.3C76.3,31.4,76.3,31.4,76.3,31.3
	c-0.1,0.1-0.2,0.1-0.2,0.1c-0.1,0-0.1,0-0.2,0c-0.1,0-0.1,0-0.2,0c0,0-0.1,0-0.1,0c0,0,0,0,0,0c0,0,0,0,0-0.1l0.8-3.8c0,0,0,0,0-0.1
	c0,0,0,0,0.1,0c0,0,0.1,0,0.1,0c0.1,0,0.1,0,0.2,0c0.1,0,0.1,0,0.2,0c0,0,0.1,0,0.1,0c0,0,0,0,0,0c0,0,0,0,0,0.1L76.3,31.3z
	 M77.5,26.2c0,0.1,0,0.1-0.1,0.2c0,0.1-0.1,0.2-0.2,0.2c-0.1,0-0.1,0-0.2,0c-0.1,0-0.1,0-0.2,0c0,0-0.1,0-0.1-0.1c0,0,0-0.1,0-0.1
	c0-0.1,0-0.3,0.1-0.4c0,0,0.1-0.1,0.1-0.1c0,0,0.1-0.1,0.1-0.1c0.1,0,0.1,0,0.2,0c0.1,0,0.1,0,0.2,0c0,0,0.1,0,0.1,0.1
	c0,0,0,0.1,0,0.1C77.5,26.1,77.5,26.2,77.5,26.2L77.5,26.2z M83.5,28.8c0,0.4-0.1,0.9-0.2,1.3c-0.1,0.2-0.2,0.4-0.3,0.6
	s-0.3,0.3-0.4,0.5c-0.2,0.1-0.4,0.2-0.6,0.3c-0.2,0.1-0.5,0.1-0.7,0.1c-0.3,0-0.5,0-0.7-0.1c-0.2-0.1-0.3-0.2-0.5-0.3
	c-0.1-0.1-0.2-0.3-0.3-0.5c-0.1-0.2-0.1-0.4-0.1-0.6c0-0.2,0-0.4,0.1-0.6c0.1-0.4,0.2-0.8,0.5-1.2c0.1-0.2,0.3-0.3,0.4-0.5
	c0.2-0.1,0.4-0.2,0.6-0.3c0.2-0.1,0.5-0.1,0.7-0.1c0.3,0,0.5,0,0.7,0.1c0.2,0.1,0.4,0.2,0.5,0.3c0.1,0.1,0.2,0.3,0.3,0.5
	C83.5,28.3,83.5,28.5,83.5,28.8 M82.7,28.8c0-0.1,0-0.3,0-0.4c0-0.1-0.1-0.2-0.1-0.3c-0.1-0.1-0.2-0.1-0.3-0.2
	c-0.1,0-0.3-0.1-0.4-0.1c-0.2,0-0.3,0-0.5,0.1c-0.1,0.1-0.3,0.1-0.4,0.2c-0.1,0.1-0.2,0.2-0.3,0.4c-0.1,0.1-0.1,0.3-0.2,0.4
	c-0.1,0.3-0.2,0.6-0.2,1c0,0.1,0,0.3,0,0.4c0.1,0.2,0.2,0.4,0.4,0.5c0.1,0,0.2,0.1,0.4,0.1c0.2,0,0.3,0,0.5-0.1s0.3-0.1,0.4-0.2
	c0.1-0.1,0.2-0.2,0.3-0.4c0.1-0.1,0.1-0.3,0.2-0.4C82.7,29.5,82.7,29.1,82.7,28.8 M91.7,31.3C91.7,31.3,91.6,31.3,91.7,31.3
	C91.6,31.4,91.6,31.4,91.7,31.3c-0.1,0.1-0.2,0.1-0.2,0.1c-0.1,0-0.1,0-0.2,0c-0.1,0-0.1,0-0.2,0c0,0-0.1,0-0.1,0c0,0,0,0,0,0
	c0,0,0,0,0-0.1l0.5-2.3c0-0.1,0-0.2,0-0.2c0-0.1,0-0.1,0-0.2c0-0.1,0-0.3-0.1-0.4c-0.1-0.1-0.2-0.2-0.4-0.2c-0.2,0-0.3,0-0.4,0.1
	c-0.2,0.1-0.3,0.2-0.4,0.4c-0.3,0.3-0.5,0.8-0.6,1.2l-0.3,1.7c0,0,0,0,0,0.1c0,0,0,0-0.1,0c0,0-0.1,0-0.1,0c-0.1,0-0.1,0-0.2,0
	c-0.1,0-0.1,0-0.2,0c0,0-0.1,0-0.1,0c0,0,0,0,0,0c0,0,0,0,0-0.1L89,29c0-0.1,0-0.2,0-0.2c0-0.1,0-0.2,0-0.2c0-0.1,0-0.3-0.1-0.4
	c-0.1-0.1-0.2-0.2-0.4-0.2c-0.2,0-0.3,0-0.4,0.1c-0.2,0.1-0.3,0.2-0.4,0.4c-0.3,0.3-0.5,0.8-0.6,1.2l-0.3,1.7c0,0,0,0,0,0.1
	c0,0,0,0-0.1,0c0,0-0.1,0-0.1,0c-0.1,0-0.1,0-0.2,0c-0.1,0-0.1,0-0.2,0c0,0-0.1,0-0.1,0c0,0,0,0,0,0c0,0,0,0,0-0.1l0.8-3.8
	c0,0,0,0,0-0.1c0,0,0,0,0.1,0c0,0,0.1,0,0.1,0c0,0,0.1,0,0.1,0c0.1,0,0.1,0,0.1,0c0,0,0.1,0,0.1,0c0,0,0,0,0,0c0,0,0,0,0,0.1
	l-0.1,0.7c0-0.1,0.1-0.2,0.2-0.3c0.2-0.2,0.5-0.4,0.8-0.5c0.2-0.1,0.3-0.1,0.5-0.1c0.2,0,0.3,0,0.4,0.1c0.1,0,0.2,0.1,0.3,0.2
	c0.1,0.1,0.1,0.2,0.2,0.3c0,0.1,0.1,0.2,0.1,0.4c0.1-0.1,0.1-0.2,0.2-0.3c0.2-0.2,0.5-0.4,0.8-0.5c0.2-0.1,0.3-0.1,0.5-0.1
	c0.2,0,0.4,0,0.5,0.1c0.1,0,0.2,0.1,0.3,0.2c0.1,0.1,0.1,0.2,0.2,0.3s0.1,0.3,0.1,0.4c0,0.1,0,0.2,0,0.3c0,0.1,0,0.2,0,0.3
	L91.7,31.3z M98.6,28.3c0,0.2,0,0.4-0.1,0.5c-0.1,0.2-0.3,0.3-0.4,0.4c-0.2,0.1-0.4,0.2-0.7,0.3c-0.3,0.1-0.7,0.1-1.1,0.1h-0.5
	c0,0.2-0.1,0.3-0.1,0.5c0,0.3,0.1,0.5,0.2,0.6c0.1,0.1,0.4,0.2,0.7,0.2c0.2,0,0.3,0,0.5,0c0.1,0,0.3-0.1,0.4-0.1
	c0.1,0,0.2-0.1,0.3-0.1c0,0,0.1,0,0.1,0c0,0,0,0,0.1,0c0,0,0,0.1,0,0.1c0,0.1,0,0.2-0.1,0.3c0,0,0,0.1-0.1,0.1
	c-0.1,0-0.1,0.1-0.2,0.1c-0.1,0-0.2,0.1-0.3,0.1c-0.3,0.1-0.5,0.1-0.8,0.1c-0.3,0-0.5,0-0.7-0.1c-0.2,0-0.3-0.1-0.5-0.3
	c-0.1-0.1-0.2-0.3-0.3-0.4c-0.1-0.2-0.1-0.4-0.1-0.6c0-0.4,0.1-0.8,0.2-1.2c0.1-0.2,0.2-0.4,0.3-0.6c0.1-0.2,0.3-0.4,0.4-0.5
	c0.2-0.1,0.4-0.3,0.6-0.3c0.2-0.1,0.5-0.1,0.8-0.1c0.2,0,0.4,0,0.6,0.1c0.2,0.1,0.3,0.1,0.4,0.2C98.4,27.8,98.6,28,98.6,28.3
	 M97.8,28.4c0-0.1-0.1-0.3-0.2-0.3c-0.1-0.1-0.3-0.1-0.5-0.1c-0.2,0-0.3,0-0.5,0.1c-0.1,0.1-0.3,0.1-0.4,0.3
	c-0.1,0.1-0.2,0.2-0.3,0.4c-0.1,0.1-0.1,0.3-0.2,0.4h0.4c0.3,0,0.5,0,0.8-0.1c0.2,0,0.4-0.1,0.5-0.1c0.1,0,0.2-0.1,0.3-0.2
	C97.8,28.5,97.8,28.4,97.8,28.4 M103.7,27.6c0,0.1,0,0.1,0,0.2c0,0.1,0,0.1-0.1,0.2c0,0,0,0-0.1,0.1c0,0,0,0-0.1,0h-1l-0.4,2.1
	c0,0.1,0,0.1,0,0.2c0,0.1,0,0.1,0,0.2c0,0.1,0,0.2,0.1,0.3c0.1,0.1,0.2,0.1,0.3,0.1c0.1,0,0.2,0,0.3-0.1c0,0,0.1,0,0.1,0
	c0,0,0.1,0,0.1,0c0,0,0,0,0.1,0c0,0,0,0,0,0.1c0,0.1,0,0.2,0,0.2c0,0,0,0.1,0,0.1c0,0,0,0.1-0.1,0.1c0,0-0.1,0-0.1,0.1
	c0,0-0.1,0-0.2,0.1c-0.1,0-0.3,0-0.4,0c-0.2,0-0.3,0-0.4,0c-0.1,0-0.2-0.1-0.3-0.2c-0.1-0.1-0.1-0.2-0.2-0.3c0-0.1-0.1-0.3-0.1-0.4
	c0-0.1,0-0.3,0-0.4c0,0,0-0.1,0-0.1l0.4-2.1h-0.5c0,0-0.1,0-0.1,0c0,0,0-0.1,0-0.1c0-0.1,0-0.2,0.1-0.3c0,0,0-0.1,0.1-0.1
	c0,0,0.1,0,0.1,0h0.5l0.2-0.9c0,0,0,0,0-0.1c0,0,0,0,0.1,0c0,0,0.1,0,0.1,0c0,0,0.1,0,0.2,0s0.1,0,0.2,0c0,0,0.1,0,0.1,0
	c0,0,0,0,0,0c0,0,0,0,0,0.1l-0.2,0.9h1c0,0,0.1,0,0.1,0C103.7,27.5,103.7,27.5,103.7,27.6 M108.8,27.5c0,0.1,0,0.2,0,0.3
	c0,0.1-0.1,0.2-0.1,0.2c0,0,0,0-0.1,0c0,0-0.1,0-0.1,0c0,0-0.1,0-0.1,0c-0.1,0-0.2-0.1-0.3,0c-0.1,0-0.2,0.1-0.3,0.1
	c-0.1,0.1-0.3,0.2-0.4,0.3c-0.3,0.3-0.5,0.7-0.6,1.2l-0.3,1.7c0,0,0,0,0,0.1c0,0,0,0-0.1,0c0,0-0.1,0-0.1,0c-0.1,0-0.1,0-0.2,0
	c-0.1,0-0.1,0-0.2,0c0,0-0.1,0-0.1,0c0,0,0,0,0,0c0,0,0,0,0-0.1l0.8-3.8c0,0,0,0,0-0.1c0,0,0,0,0.1,0c0,0,0.1,0,0.1,0
	c0.1,0,0.2,0,0.3,0c0,0,0.1,0,0.1,0c0,0,0,0,0,0c0,0,0,0,0,0.1l-0.1,0.7c0.1-0.1,0.1-0.2,0.2-0.3c0.1-0.1,0.2-0.2,0.3-0.3
	c0.1-0.1,0.2-0.1,0.3-0.2c0.2-0.1,0.3-0.1,0.5-0.1c0.1,0,0.1,0,0.1,0c0,0,0.1,0,0.1,0C108.7,27.4,108.7,27.4,108.8,27.5
	C108.8,27.5,108.8,27.5,108.8,27.5 M111.5,31.3C111.5,31.3,111.5,31.3,111.5,31.3C111.5,31.4,111.4,31.4,111.5,31.3
	c-0.1,0.1-0.2,0.1-0.2,0.1c-0.1,0-0.1,0-0.2,0c-0.1,0-0.1,0-0.2,0c0,0-0.1,0-0.1,0c0,0,0,0,0,0c0,0,0,0,0-0.1l0.8-3.8c0,0,0,0,0-0.1
	c0,0,0,0,0.1,0c0,0,0.1,0,0.1,0c0,0,0.1,0,0.2,0c0.1,0,0.1,0,0.2,0c0,0,0.1,0,0.1,0c0,0,0,0,0,0c0,0,0,0,0,0.1L111.5,31.3z
	 M112.6,26.2c0,0.1,0,0.1-0.1,0.2c0,0-0.1,0.1-0.1,0.1c0,0-0.1,0.1-0.1,0.1c-0.1,0-0.1,0-0.2,0c-0.1,0-0.1,0-0.2,0
	c0,0-0.1,0-0.1-0.1c0,0,0-0.1,0-0.1c0-0.1,0-0.3,0.1-0.4c0,0,0.1-0.1,0.1-0.1c0,0,0.1-0.1,0.1-0.1c0.1,0,0.1,0,0.2,0
	c0.1,0,0.1,0,0.2,0c0,0,0.1,0,0.1,0.1c0,0,0,0.1,0,0.1C112.6,26.1,112.6,26.2,112.6,26.2z M118.1,27.9c0,0.1,0,0.2-0.1,0.3
	c0,0,0,0.1-0.1,0.1c0,0-0.1,0-0.1,0c0,0-0.1,0-0.1-0.1c-0.1,0-0.1-0.1-0.2-0.1c-0.1-0.1-0.2-0.1-0.3-0.1c-0.1,0-0.3-0.1-0.4-0.1
	c-0.2,0-0.3,0-0.5,0.1c-0.1,0.1-0.3,0.2-0.4,0.3c-0.1,0.1-0.2,0.3-0.3,0.4c-0.2,0.4-0.3,0.8-0.3,1.3c0,0.3,0.1,0.5,0.2,0.7
	c0.1,0.2,0.3,0.2,0.6,0.2c0.3,0,0.6-0.1,0.8-0.2c0.1-0.1,0.2-0.1,0.2-0.2c0.1,0,0.1-0.1,0.2-0.1c0,0,0,0,0.1,0c0,0,0,0.1,0,0.1
	c0,0.1,0,0.3-0.1,0.4c0,0,0,0.1-0.1,0.1c-0.1,0-0.1,0.1-0.2,0.1c-0.1,0-0.2,0.1-0.3,0.1c-0.1,0-0.2,0.1-0.4,0.1c-0.1,0-0.3,0-0.4,0
	c-0.5,0-0.8-0.1-1-0.3c-0.2-0.2-0.3-0.6-0.3-1c0-0.2,0-0.4,0-0.6c0.1-0.4,0.2-0.8,0.4-1.2c0.1-0.2,0.2-0.4,0.4-0.5s0.3-0.3,0.6-0.4
	c0.2-0.1,0.5-0.1,0.7-0.1c0.2,0,0.4,0,0.6,0.1c0.2,0.1,0.3,0.1,0.4,0.2C118.1,27.7,118.1,27.7,118.1,27.9
	C118.1,27.8,118.1,27.8,118.1,27.9 M123.3,27.7c0,0.1,0,0.2-0.1,0.2c0,0,0,0.1-0.1,0.1c0,0,0,0-0.1,0c0,0-0.1,0-0.1,0
	c-0.1,0-0.1-0.1-0.2-0.1c-0.1,0-0.2-0.1-0.2-0.1c-0.1,0-0.2,0-0.3,0c-0.1,0-0.2,0-0.3,0.1c-0.1,0-0.2,0.1-0.2,0.1
	c-0.1,0.1-0.2,0.3-0.2,0.4c0,0.1,0,0.2,0.1,0.3c0.1,0.1,0.2,0.1,0.3,0.2c0.1,0.1,0.2,0.1,0.4,0.2s0.3,0.1,0.4,0.2
	c0.1,0.1,0.2,0.2,0.3,0.3c0.1,0.1,0.1,0.3,0.1,0.4c0,0.2,0,0.4-0.1,0.5c-0.1,0.2-0.2,0.3-0.3,0.4c-0.2,0.1-0.3,0.2-0.5,0.3
	c-0.2,0.1-0.5,0.1-0.7,0.1c-0.2,0-0.5,0-0.7-0.1c-0.1,0-0.2-0.1-0.2-0.1c-0.1,0-0.1-0.1-0.2-0.1c0,0,0,0-0.1-0.1c0,0,0-0.1,0-0.1
	c0,0,0,0,0-0.1c0,0,0-0.1,0-0.1c0,0,0-0.1,0-0.1c0-0.1,0-0.1,0.1-0.1c0,0,0,0,0.1,0c0,0,0.1,0,0.1,0.1c0,0,0.1,0.1,0.2,0.1
	s0.2,0.1,0.3,0.1c0.1,0,0.3,0.1,0.4,0.1c0.2,0,0.3,0,0.4-0.1c0.1,0,0.2-0.1,0.3-0.2c0.1-0.1,0.1-0.1,0.2-0.2c0-0.1,0.1-0.2,0.1-0.3
	c0-0.1,0-0.2-0.1-0.3c-0.1-0.1-0.2-0.1-0.3-0.2c-0.1-0.1-0.2-0.1-0.4-0.2c-0.1-0.1-0.2-0.1-0.4-0.2c-0.1-0.1-0.2-0.2-0.3-0.3
	c-0.1-0.1-0.1-0.3-0.1-0.4c0-0.4,0.2-0.7,0.4-0.9c0.1-0.1,0.3-0.2,0.5-0.3c0.2-0.1,0.4-0.1,0.6-0.1c0.1,0,0.2,0,0.3,0
	c0.1,0,0.2,0,0.3,0.1c0.1,0,0.2,0.1,0.2,0.1c0.1,0,0.1,0.1,0.1,0.1C123.2,27.6,123.3,27.7,123.3,27.7 M38.1,2.8c0,0.2,0,0.4,0,0.5
	c0,0.1-0.1,0.2-0.1,0.4c0,0.1-0.1,0.1-0.2,0.2c-0.1,0-0.1,0.1-0.2,0.1H30v6.9h7.1c0.2,0,0.3,0.1,0.4,0.2c0.1,0.1,0.1,0.2,0.1,0.3
	c0,0.1,0,0.3,0,0.5c0,0.2,0,0.4,0,0.5c0,0.1-0.1,0.2-0.1,0.3c0,0.1-0.1,0.2-0.2,0.2c-0.1,0-0.1,0.1-0.2,0.1H30v8.5
	c0,0.1,0,0.1-0.1,0.2c-0.1,0.1-0.1,0.1-0.2,0.2c-0.1,0-0.3,0.1-0.4,0.1c-0.2,0-0.4,0-0.7,0c-0.3,0-0.5,0-0.7,0
	c-0.1,0-0.3-0.1-0.4-0.1c-0.1,0-0.2-0.1-0.2-0.2c0-0.1-0.1-0.1-0.1-0.2V2.7c0-0.4,0.1-0.7,0.3-0.9c0.2-0.2,0.4-0.2,0.7-0.2h9.3
	c0.1,0,0.1,0,0.2,0.1c0.1,0,0.1,0.1,0.2,0.2C38,2,38.1,2.1,38.1,2.3C38.1,2.4,38.1,2.6,38.1,2.8 M51.9,21.6c0,0.1,0,0.2-0.1,0.3
	C51.7,22,51.6,22,51.4,22c-0.1,0-0.4,0-0.7,0c-0.3,0-0.5,0-0.7,0c-0.2,0-0.3-0.1-0.4-0.1c-0.1-0.1-0.1-0.2-0.1-0.3v-1.4
	c-0.6,0.6-1.3,1.2-2.1,1.5c-0.8,0.4-1.6,0.6-2.4,0.5c-0.8,0-1.4-0.1-2.1-0.3c-0.6-0.2-1.1-0.5-1.6-0.8c-0.4-0.4-0.8-0.8-1-1.4
	c-0.2-0.5-0.4-1.1-0.4-1.8c0-0.8,0.2-1.5,0.5-2.1c0.3-0.6,0.8-1.1,1.4-1.5c0.6-0.4,1.4-0.7,2.3-0.9c0.9-0.2,1.9-0.3,3-0.3h2v-1.1
	c0-0.5-0.1-1-0.2-1.4c-0.1-0.4-0.3-0.7-0.6-1c-0.3-0.3-0.6-0.5-1-0.6c-0.4-0.1-0.9-0.2-1.5-0.2c-0.6,0-1.2,0.1-1.7,0.2
	c-0.5,0.2-1,0.3-1.4,0.5c-0.4,0.2-0.7,0.4-1,0.5s-0.5,0.2-0.6,0.2c-0.1,0-0.2,0-0.2-0.1c-0.1,0-0.1-0.1-0.2-0.2
	c-0.1-0.1-0.1-0.2-0.1-0.3c0-0.1,0-0.3,0-0.4c0-0.3,0-0.5,0.1-0.6c0-0.2,0.1-0.3,0.3-0.4c0.1-0.1,0.4-0.3,0.7-0.5
	c0.4-0.2,0.8-0.4,1.2-0.5c0.5-0.2,1-0.3,1.5-0.4c0.5-0.1,1.1-0.1,1.6-0.1c1,0,1.9,0.1,2.6,0.3c0.7,0.2,1.3,0.6,1.8,1
	c0.4,0.4,0.8,1,1,1.7c0.2,0.7,0.3,1.4,0.3,2.3L51.9,21.6z M49.3,15.1h-2.3c-0.7,0-1.4,0.1-1.9,0.2s-1,0.3-1.3,0.5s-0.6,0.5-0.8,0.9
	c-0.2,0.3-0.2,0.7-0.2,1.1c0,0.7,0.2,1.3,0.7,1.8c0.5,0.4,1.1,0.7,2,0.7c0.7,0,1.3-0.2,1.9-0.5c0.6-0.3,1.2-0.9,1.9-1.6L49.3,15.1z
	 M67.1,19.4c0,0.2,0,0.3,0,0.5c0,0.1,0,0.2-0.1,0.3c0,0.1-0.1,0.2-0.1,0.2c-0.1,0.1-0.2,0.2-0.3,0.3c-0.1,0.1-0.4,0.3-0.7,0.5
	c-0.3,0.2-0.7,0.4-1.1,0.5c-0.4,0.2-0.8,0.3-1.3,0.4c-0.5,0.1-1,0.1-1.5,0.1c-1,0-1.9-0.2-2.7-0.5c-0.8-0.3-1.5-0.8-2-1.5
	c-0.5-0.6-0.9-1.4-1.2-2.4c-0.3-0.9-0.4-2-0.4-3.3c0-1.4,0.2-2.6,0.5-3.6c0.3-1,0.8-1.8,1.4-2.5C58.3,8,59,7.5,59.8,7.2
	c0.8-0.3,1.7-0.5,2.6-0.5c0.5,0,0.9,0,1.3,0.1c0.4,0.1,0.8,0.2,1.2,0.3c0.4,0.1,0.7,0.3,1,0.5s0.5,0.3,0.6,0.5
	c0.1,0.1,0.2,0.2,0.3,0.3c0,0.1,0.1,0.2,0.1,0.3C67,8.8,67,8.9,67,9c0,0.2,0,0.3,0,0.5c0,0.4,0,0.7-0.1,0.9
	c-0.1,0.2-0.2,0.2-0.4,0.2c-0.2,0-0.3-0.1-0.6-0.3c-0.3-0.2-0.5-0.4-0.8-0.6c-0.4-0.2-0.8-0.4-1.2-0.6c-0.5-0.2-1-0.3-1.6-0.3
	c-1.3,0-2.2,0.5-2.9,1.4c-0.7,1-1,2.4-1,4.2c0,0.9,0.1,1.7,0.3,2.4c0.2,0.7,0.4,1.3,0.8,1.7c0.3,0.5,0.8,0.8,1.3,1
	c0.5,0.2,1.1,0.3,1.7,0.3c0.6,0,1.1-0.1,1.6-0.3c0.4-0.2,0.8-0.4,1.2-0.6c0.3-0.2,0.6-0.4,0.8-0.6c0.2-0.2,0.4-0.3,0.5-0.3
	c0.1,0,0.1,0,0.2,0.1c0.1,0.1,0.1,0.1,0.1,0.2c0,0.1,0.1,0.2,0.1,0.4S67.1,19.2,67.1,19.4 M82.8,13.9c0,0.4-0.1,0.7-0.3,0.9
	c-0.2,0.2-0.4,0.3-0.7,0.3h-9.5c0,0.8,0.1,1.5,0.2,2.1c0.2,0.6,0.4,1.2,0.8,1.6c0.4,0.5,0.9,0.8,1.5,1c0.6,0.2,1.3,0.4,2.2,0.4
	c0.7,0,1.3-0.1,1.8-0.2s1-0.2,1.4-0.4c0.4-0.1,0.7-0.3,1-0.4c0.3-0.1,0.4-0.2,0.6-0.2c0.1,0,0.1,0,0.2,0.1c0.1,0,0.1,0.1,0.1,0.2
	c0,0.1,0.1,0.2,0.1,0.3c0,0.1,0,0.3,0,0.5c0,0.2,0,0.4-0.1,0.6c0,0.1,0,0.1-0.1,0.2c0,0.1-0.1,0.1-0.1,0.2c-0.1,0.1-0.2,0.2-0.5,0.3
	c-0.3,0.1-0.7,0.3-1.1,0.4c-0.5,0.1-1,0.2-1.6,0.3c-0.6,0.1-1.2,0.2-1.9,0.2c-1.2,0-2.2-0.2-3.1-0.5s-1.6-0.8-2.2-1.4
	c-0.6-0.6-1.1-1.4-1.4-2.4c-0.3-1-0.5-2.1-0.5-3.4c0-1.2,0.2-2.3,0.5-3.3c0.3-1,0.8-1.8,1.4-2.5c0.6-0.7,1.3-1.2,2.2-1.6
	c0.9-0.4,1.8-0.5,2.9-0.5c1.1,0,2.1,0.2,2.9,0.5c0.8,0.4,1.4,0.8,2,1.4c0.5,0.6,0.9,1.3,1.1,2.1c0.2,0.8,0.4,1.7,0.4,2.6V13.9z
	 M80.2,13.1c0-1.4-0.3-2.4-0.9-3.2c-0.6-0.8-1.6-1.2-2.9-1.2c-0.7,0-1.2,0.1-1.7,0.4c-0.5,0.2-0.9,0.6-1.2,1
	c-0.3,0.4-0.6,0.9-0.8,1.4c-0.2,0.5-0.3,1.1-0.3,1.7H80.2z M99.8,7.6c0,1-0.2,1.9-0.5,2.8c-0.3,0.8-0.8,1.5-1.5,2.1
	c-0.6,0.6-1.4,1-2.3,1.3c-0.9,0.3-2,0.5-3.3,0.5h-2.3v7.3c0,0.1,0,0.2-0.1,0.2c-0.1,0.1-0.1,0.1-0.2,0.2c-0.1,0-0.2,0.1-0.4,0.1
	c-0.2,0-0.4,0-0.7,0c-0.2,0-0.4,0-0.7,0c-0.1,0-0.3-0.1-0.4-0.1c-0.1,0-0.2-0.1-0.2-0.2c0-0.1-0.1-0.1-0.1-0.2V2.8
	c0-0.4,0.1-0.7,0.3-0.9c0.2-0.2,0.5-0.3,0.8-0.3h4.4c0.4,0,0.9,0,1.3,0.1s0.9,0.1,1.5,0.2c0.6,0.1,1.2,0.4,1.7,0.7
	c0.6,0.3,1.1,0.7,1.5,1.2c0.4,0.5,0.7,1,0.9,1.7C99.7,6.2,99.8,6.9,99.8,7.6 M97,7.8c0-0.8-0.2-1.5-0.5-2.1c-0.3-0.6-0.7-1-1.2-1.2
	C94.9,4.2,94.4,4,93.9,4c-0.5-0.1-1-0.1-1.4-0.1h-2.5V12h2.5c0.8,0,1.5-0.1,2.1-0.3c0.5-0.2,1-0.5,1.4-0.9c0.4-0.4,0.7-0.8,0.8-1.3
	C96.9,9,97,8.4,97,7.8 M116.1,21.6c0,0.1,0,0.2-0.1,0.2c-0.1,0.1-0.1,0.1-0.2,0.2c-0.1,0-0.2,0.1-0.4,0.1s-0.4,0-0.6,0
	c-0.3,0-0.5,0-0.7,0c-0.1,0-0.3,0-0.4-0.1c-0.1,0-0.2-0.1-0.2-0.2c0-0.1-0.1-0.1-0.1-0.2v-8.3c0-0.8-0.1-1.5-0.2-2
	c-0.1-0.5-0.3-0.9-0.6-1.3c-0.2-0.4-0.6-0.6-0.9-0.8c-0.4-0.2-0.8-0.3-1.3-0.3c-0.7,0-1.3,0.2-2,0.7c-0.7,0.5-1.4,1.1-2.1,2v9.9
	c0,0.1,0,0.2-0.1,0.2c-0.1,0.1-0.1,0.1-0.2,0.2c-0.1,0-0.3,0.1-0.4,0.1c-0.2,0-0.4,0-0.7,0c-0.2,0-0.4,0-0.6,0c-0.1,0-0.3,0-0.4-0.1
	c-0.1,0-0.2-0.1-0.2-0.2c0-0.1-0.1-0.1-0.1-0.2v-21c0-0.1,0-0.2,0.1-0.2c0.1-0.1,0.1-0.1,0.2-0.2c0.1,0,0.3-0.1,0.4-0.1
	c0.2,0,0.4,0,0.6,0c0.3,0,0.5,0,0.7,0c0.2,0,0.3,0.1,0.4,0.1c0.1,0,0.2,0.1,0.2,0.2c0,0.1,0.1,0.1,0.1,0.2v8.5
	c0.8-0.8,1.5-1.4,2.3-1.8c0.8-0.4,1.5-0.6,2.3-0.6c1,0,1.8,0.2,2.4,0.5c0.7,0.3,1.2,0.7,1.6,1.3c0.4,0.5,0.7,1.2,0.9,1.9
	c0.2,0.7,0.3,1.6,0.3,2.6L116.1,21.6z M123.8,2.6c0,0.6-0.1,1-0.4,1.2c-0.2,0.2-0.7,0.3-1.3,0.3c-0.6,0-1-0.1-1.3-0.3
	c-0.2-0.2-0.3-0.6-0.3-1.2c0-0.6,0.1-1,0.4-1.2c0.2-0.2,0.7-0.3,1.3-0.3c0.6,0,1,0.1,1.3,0.3S123.8,2,123.8,2.6L123.8,2.6z
	 M123.5,21.6c0,0.1,0,0.2-0.1,0.2c-0.1,0.1-0.1,0.1-0.2,0.2c-0.1,0-0.2,0.1-0.4,0.1c-0.2,0-0.4,0-0.7,0c-0.3,0-0.5,0-0.6,0
	c-0.1,0-0.3,0-0.4-0.1c-0.1,0-0.2-0.1-0.2-0.2c0-0.1-0.1-0.1-0.1-0.2V7.4c0-0.1,0-0.1,0.1-0.2c0.1-0.1,0.1-0.1,0.2-0.2
	c0.1,0,0.2-0.1,0.4-0.1c0.2,0,0.4,0,0.6,0c0.3,0,0.5,0,0.7,0c0.2,0,0.3,0.1,0.4,0.1c0.1,0,0.2,0.1,0.2,0.2c0,0.1,0.1,0.1,0.1,0.2
	V21.6z M11,21V7.1c0-2.2,0.4-3.8,1.3-4.8c0.9-1,2.1-1.4,3.7-1.4c2.3,0,4.3,1,6,2.9c1.8,1.9,2.6,4.3,2.6,7.2c0,1.9-0.5,3.8-1.4,5.6
	c-1,1.8-2.2,3.2-3.7,4.1c-1.5,0.9-3.5,1.4-6,1.6v9.1H11v-9.1c-2.3-0.2-4.2-0.7-5.7-1.6c-1.5-0.9-2.8-2.2-3.7-4
	c-1-1.8-1.4-3.7-1.4-5.6c0-1.6,0.3-3.1,0.9-4.5C1.7,5.1,2.5,4,3.4,3.2c0.9-0.8,1.8-1.4,2.7-1.7C7,1.1,8.2,0.9,9.5,0.8v0.8
	C8.2,1.8,7,2.5,6,3.9c-1,1.4-1.5,3.6-1.5,6.7c0,2.2,0.3,4.1,1.1,5.7c0.7,1.6,1.6,2.7,2.6,3.5C8.8,20.3,9.8,20.7,11,21L11,21z
	 M13.5,21c1.5-0.2,2.7-0.5,3.6-1c1.3-0.7,2.3-1.8,2.9-3.1c0.7-1.4,1-3,1-4.9c0-2.7-0.7-4.9-2-6.6c-1-1.3-2.1-1.9-3.4-1.9
	c-0.6,0-1.2,0.3-1.6,0.8c-0.4,0.6-0.6,1.7-0.6,3.5V21z"/>
</svg>
